<?xml version="1.0" encoding="UTF-8"?>
<!DOCTYPE svg PUBLIC "-//W3C//DTD SVG 1.1//EN" "http://www.w3.org/Graphics/SVG/1.1/DTD/svg11.dtd">
<svg xmlns="http://www.w3.org/2000/svg" version="1.1" width="512px" height="512px" style="shape-rendering:geometricPrecision; text-rendering:geometricPrecision; image-rendering:optimizeQuality; fill-rule:evenodd; clip-rule:evenodd" xmlns:xlink="http://www.w3.org/1999/xlink">
<g><path style="opacity:0.98" fill="#000000" d="M 511.5,51.5 C 511.5,157.5 511.5,263.5 511.5,369.5C 506.802,385.027 496.469,394.527 480.5,398C 428.168,398.5 375.834,398.667 323.5,398.5C 322.076,421.552 332.409,436.052 354.5,442C 381.5,442.333 408.5,442.667 435.5,443C 451.453,446.286 461.62,455.786 466,471.5C 466.667,475.833 466.667,480.167 466,484.5C 464.786,486.049 463.286,487.215 461.5,488C 324.167,488.667 186.833,488.667 49.5,488C 47.714,487.215 46.214,486.049 45,484.5C 43.5857,462.164 53.7523,448.331 75.5,443C 102.5,442.667 129.5,442.333 156.5,442C 178.584,436.057 188.917,421.557 187.5,398.5C 135.166,398.667 82.8323,398.5 30.5,398C 14.5308,394.527 4.19751,385.027 -0.5,369.5C -0.5,263.5 -0.5,157.5 -0.5,51.5C 4.19751,35.9726 14.5308,26.4726 30.5,23C 180.5,22.3333 330.5,22.3333 480.5,23C 496.469,26.4726 506.802,35.9726 511.5,51.5 Z"/></g>
<g><path style="opacity:1" fill="#425c79" d="M 33.5,38.5 C 177.167,38.3333 320.834,38.5 464.5,39C 469.621,43.7399 472.788,49.5732 474,56.5C 474.5,145.166 474.667,233.833 474.5,322.5C 321.167,322.5 167.833,322.5 14.5,322.5C 14.3333,233.166 14.5,143.833 15,54.5C 17.975,45.3512 24.1416,40.0179 33.5,38.5 Z"/></g>
<g><path style="opacity:1" fill="#2b3b50" d="M 33.5,38.5 C 180.999,37.3339 328.666,37.1672 476.5,38C 486.78,39.6133 493.28,45.4466 496,55.5C 496.5,144.833 496.667,234.166 496.5,323.5C 335.666,323.833 174.999,323.5 14.5,322.5C 167.833,322.5 321.167,322.5 474.5,322.5C 474.667,233.833 474.5,145.166 474,56.5C 472.788,49.5732 469.621,43.7399 464.5,39C 320.834,38.5 177.167,38.3333 33.5,38.5 Z"/></g>
<g><path style="opacity:1" fill="#def4fe" d="M 14.5,338.5 C 167.5,338.5 320.5,338.5 473.5,338.5C 473.666,348.172 473.5,357.839 473,367.5C 471.826,373.333 468.993,378.166 464.5,382C 320.834,382.5 177.167,382.667 33.5,382.5C 24.9506,381.3 19.1173,376.633 16,368.5C 14.5766,358.58 14.0766,348.58 14.5,338.5 Z"/></g>
<g><path style="opacity:1" fill="#9ebcca" d="M 14.5,338.5 C 174.999,337.5 335.666,337.167 496.5,337.5C 496.926,347.912 496.426,358.246 495,368.5C 491.811,376.513 485.978,381.346 477.5,383C 329.333,383.833 181.333,383.666 33.5,382.5C 177.167,382.667 320.834,382.5 464.5,382C 468.993,378.166 471.826,373.333 473,367.5C 473.5,357.839 473.666,348.172 473.5,338.5C 320.5,338.5 167.5,338.5 14.5,338.5 Z"/></g>
<g><path style="opacity:1" fill="#beeafe" d="M 203.5,398.5 C 230.833,398.5 258.167,398.5 285.5,398.5C 284.103,416.683 290.437,431.35 304.5,442.5C 292.322,442.172 280.322,442.505 268.5,443.5C 264.082,444.83 262.415,447.83 263.5,452.5C 258.167,449.833 252.833,449.833 247.5,452.5C 248.585,447.83 246.918,444.83 242.5,443.5C 224.5,442.833 206.5,442.167 188.5,441.5C 199.175,429.126 204.175,414.792 203.5,398.5 Z"/></g>
<g><path style="opacity:1" fill="#79caef" d="M 203.5,398.5 C 237.998,397.336 272.664,397.169 307.5,398C 306.76,414.568 311.76,429.068 322.5,441.5C 316.69,442.49 310.69,442.823 304.5,442.5C 290.437,431.35 284.103,416.683 285.5,398.5C 258.167,398.5 230.833,398.5 203.5,398.5 Z"/></g>
<g><path style="opacity:1" fill="#667d88" d="M 188.5,441.5 C 206.5,442.167 224.5,442.833 242.5,443.5C 224.155,443.833 205.821,443.5 187.5,442.5C 187.624,441.893 187.957,441.56 188.5,441.5 Z"/></g>
<g><path style="opacity:1" fill="#5e7a87" d="M 322.5,441.5 C 323.043,441.56 323.376,441.893 323.5,442.5C 305.179,443.5 286.845,443.833 268.5,443.5C 280.322,442.505 292.322,442.172 304.5,442.5C 310.69,442.823 316.69,442.49 322.5,441.5 Z"/></g>
<g><path style="opacity:1" fill="#def4fe" d="M 263.5,452.5 C 264.167,455.167 265.833,456.833 268.5,457.5C 318.665,458.333 368.998,458.833 419.5,459C 423.846,462.527 426.512,467.027 427.5,472.5C 305.332,472.833 183.332,472.5 61.5,471.5C 64.0098,465.491 68.3432,461.324 74.5,459C 130.5,458.667 186.5,458.333 242.5,458C 245.079,456.924 246.746,455.091 247.5,452.5C 252.833,449.833 258.167,449.833 263.5,452.5 Z"/></g>
<g><path style="opacity:1" fill="#a5c6d6" d="M 268.5,457.5 C 323.168,457.333 377.834,457.5 432.5,458C 440.498,459.654 446.164,464.154 449.5,471.5C 442.352,472.492 435.019,472.825 427.5,472.5C 426.512,467.027 423.846,462.527 419.5,459C 368.998,458.833 318.665,458.333 268.5,457.5 Z"/></g>
<g><path style="opacity:1" fill="#758287" d="M 61.5,471.5 C 183.332,472.5 305.332,472.833 427.5,472.5C 435.019,472.825 442.352,472.492 449.5,471.5C 450.043,471.56 450.376,471.893 450.5,472.5C 320.5,473.833 190.5,473.833 60.5,472.5C 60.6236,471.893 60.9569,471.56 61.5,471.5 Z"/></g>
</svg>
