<?xml version="1.0" encoding="UTF-8"?>
<!DOCTYPE svg PUBLIC "-//W3C//DTD SVG 1.1//EN" "http://www.w3.org/Graphics/SVG/1.1/DTD/svg11.dtd">
<svg xmlns="http://www.w3.org/2000/svg" version="1.1" width="512px" height="512px" style="shape-rendering:geometricPrecision; text-rendering:geometricPrecision; image-rendering:optimizeQuality; fill-rule:evenodd; clip-rule:evenodd" xmlns:xlink="http://www.w3.org/1999/xlink">
<g><path style="opacity:0.993" fill="#000000" d="M 28.5,-0.5 C 179.833,-0.5 331.167,-0.5 482.5,-0.5C 488.907,2.07812 493.074,6.74479 495,13.5C 495.667,57.5 495.667,101.5 495,145.5C 493.489,151.365 489.989,155.532 484.5,158C 477.924,159.377 471.257,159.877 464.5,159.5C 464.5,164.833 464.5,170.167 464.5,175.5C 475.166,173.465 484.332,176.131 492,183.5C 493,185.5 494,187.5 495,189.5C 495.167,211.667 495.333,233.833 495.5,256C 495.652,279.228 495.152,302.394 494,325.5C 491.448,329.719 487.948,332.886 483.5,335C 477.258,336.37 470.925,336.87 464.5,336.5C 464.5,341.5 464.5,346.5 464.5,351.5C 470.509,351.334 476.509,351.501 482.5,352C 487.92,353.788 491.753,357.288 494,362.5C 495.627,380.768 495.96,399.101 495,417.5C 493.362,419.734 491.195,421.067 488.5,421.5C 485.336,420.99 482.836,419.324 481,416.5C 480.667,400.833 480.333,385.167 480,369.5C 479.167,368.667 478.333,367.833 477.5,367C 467.839,366.5 458.172,366.334 448.5,366.5C 310.166,366.333 171.833,366.5 33.5,367C 32.3333,367.5 31.5,368.333 31,369.5C 30.3333,410.833 30.3333,452.167 31,493.5C 31.5,494.667 32.3333,495.5 33.5,496C 171.833,496.5 310.166,496.667 448.5,496.5C 458.172,496.666 467.839,496.5 477.5,496C 478.308,495.692 478.975,495.192 479.5,494.5C 480.319,478.211 480.819,461.877 481,445.5C 482.41,442.211 484.91,440.544 488.5,440.5C 491.263,440.744 493.429,442.077 495,444.5C 495.667,462.167 495.667,479.833 495,497.5C 493.074,504.255 488.907,508.922 482.5,511.5C 331.167,511.5 179.833,511.5 28.5,511.5C 22.0932,508.922 17.9265,504.255 16,497.5C 15.3333,453.5 15.3333,409.5 16,365.5C 17.7361,358.763 21.9028,354.263 28.5,352C 34.4908,351.501 40.4908,351.334 46.5,351.5C 46.5,346.5 46.5,341.5 46.5,336.5C 40.0749,336.87 33.7416,336.37 27.5,335C 23.052,332.886 19.552,329.719 17,325.5C 15.8482,302.394 15.3482,279.228 15.5,256C 15.6667,233.833 15.8333,211.667 16,189.5C 18.6954,182.137 23.862,177.637 31.5,176C 36.4889,175.501 41.4889,175.334 46.5,175.5C 46.5,170.167 46.5,164.833 46.5,159.5C 39.7431,159.877 33.0764,159.377 26.5,158C 21.0109,155.532 17.5109,151.365 16,145.5C 15.3333,125.167 15.3333,104.833 16,84.5C 17.2725,81.7776 19.4392,80.4443 22.5,80.5C 26.0897,80.5441 28.5897,82.2108 30,85.5C 30.3333,104.167 30.6667,122.833 31,141.5C 31.8333,142.333 32.6667,143.167 33.5,144C 171.833,144.5 310.166,144.667 448.5,144.5C 458.172,144.666 467.839,144.5 477.5,144C 478.333,143.167 479.167,142.333 480,141.5C 480.667,100.167 480.667,58.8333 480,17.5C 479.5,16.3333 478.667,15.5 477.5,15C 467.839,14.5002 458.172,14.3335 448.5,14.5C 310.166,14.3333 171.833,14.5 33.5,15C 32.3333,15.5 31.5,16.3333 31,17.5C 30.6667,30.5 30.3333,43.5 30,56.5C 28.0867,59.2803 25.5867,60.947 22.5,61.5C 19.8447,60.9993 17.678,59.6659 16,57.5C 15.3333,42.8333 15.3333,28.1667 16,13.5C 17.9265,6.74479 22.0932,2.07812 28.5,-0.5 Z"/></g>
<g><path style="opacity:1" fill="#798b97" d="M 448.5,14.5 C 449.133,18.2514 449.467,22.0848 449.5,26C 449.488,29.9018 448.821,33.4018 447.5,36.5C 432.214,33.2844 421.714,38.9511 416,53.5C 415.333,70.5 415.333,87.5 416,104.5C 421.371,119.436 431.871,125.436 447.5,122.5C 448.82,125.428 449.486,128.761 449.5,132.5C 449.432,136.55 449.098,140.55 448.5,144.5C 310.166,144.667 171.833,144.5 33.5,144C 32.6667,143.167 31.8333,142.333 31,141.5C 30.6667,122.833 30.3333,104.167 30,85.5C 28.5897,82.2108 26.0897,80.5441 22.5,80.5C 22.5,74.1667 22.5,67.8333 22.5,61.5C 25.5867,60.947 28.0867,59.2803 30,56.5C 30.3333,43.5 30.6667,30.5 31,17.5C 31.5,16.3333 32.3333,15.5 33.5,15C 171.833,14.5 310.166,14.3333 448.5,14.5 Z"/></g>
<g><path style="opacity:1" fill="#576a74" d="M 448.5,14.5 C 458.172,14.3335 467.839,14.5002 477.5,15C 478.667,15.5 479.5,16.3333 480,17.5C 480.667,58.8333 480.667,100.167 480,141.5C 479.167,142.333 478.333,143.167 477.5,144C 467.839,144.5 458.172,144.666 448.5,144.5C 449.098,140.55 449.432,136.55 449.5,132.5C 449.486,128.761 448.82,125.428 447.5,122.5C 454.296,119.992 459.129,115.325 462,108.5C 463.129,98.7366 463.629,88.9033 463.5,79C 463.333,70.1667 463.167,61.3333 463,52.5C 460.289,44.6242 455.122,39.2909 447.5,36.5C 448.821,33.4018 449.488,29.9018 449.5,26C 449.467,22.0848 449.133,18.2514 448.5,14.5 Z"/></g>
<g><path style="opacity:1" fill="#020303" d="M 366.5,35.5 C 382.172,34.036 392.338,40.7027 397,55.5C 397.667,71.1667 397.667,86.8333 397,102.5C 392.94,117.615 383.107,124.448 367.5,123C 358,120.167 351.833,114 349,104.5C 348.333,87.8333 348.333,71.1667 349,54.5C 351.928,45.4081 357.762,39.0747 366.5,35.5 Z"/></g>
<g><path style="opacity:1" fill="#050402" d="M 447.5,36.5 C 455.122,39.2909 460.289,44.6242 463,52.5C 463.167,61.3333 463.333,70.1667 463.5,79C 463.629,88.9033 463.129,98.7366 462,108.5C 459.129,115.325 454.296,119.992 447.5,122.5C 431.871,125.436 421.371,119.436 416,104.5C 415.333,87.5 415.333,70.5 416,53.5C 421.714,38.9511 432.214,33.2844 447.5,36.5 Z"/></g>
<g><path style="opacity:1" fill="#010101" d="M 69.5,50.5 C 142.167,50.3333 214.834,50.5 287.5,51C 304.627,56.7949 311.794,68.6283 309,86.5C 305.86,97.6403 298.693,104.807 287.5,108C 214.833,108.667 142.167,108.667 69.5,108C 52.4359,101.71 45.2692,89.5431 48,71.5C 51.7507,60.915 58.9174,53.915 69.5,50.5 Z"/></g>
<g><path style="opacity:1" fill="#5db1f7" d="M 369.5,50.5 C 375.425,49.8751 379.591,52.2085 382,57.5C 382.667,72.1667 382.667,86.8333 382,101.5C 378.944,107.943 374.111,109.776 367.5,107C 365.513,105.681 364.346,103.848 364,101.5C 363.333,86.5 363.333,71.5 364,56.5C 365.36,53.9774 367.193,51.9774 369.5,50.5 Z"/></g>
<g><path style="opacity:1" fill="#fdcf5a" d="M 436.5,50.5 C 441.384,49.8606 445.217,51.5273 448,55.5C 448.667,71.5 448.667,87.5 448,103.5C 441.833,110.412 436.167,110.079 431,102.5C 430.333,87.1667 430.333,71.8333 431,56.5C 432.36,53.9774 434.193,51.9774 436.5,50.5 Z"/></g>
<g><path style="opacity:1" fill="#9eabb9" d="M 71.5,65.5 C 142.834,65.3333 214.167,65.5 285.5,66C 295.572,71.2164 297.739,78.7164 292,88.5C 290.048,90.8936 287.548,92.3936 284.5,93C 213.833,93.6667 143.167,93.6667 72.5,93C 62.218,88.3042 59.718,80.8042 65,70.5C 66.9651,68.4497 69.1318,66.783 71.5,65.5 Z"/></g>
<g><path style="opacity:1" fill="#314044" d="M 62.5,159.5 C 62.5,164.833 62.5,170.167 62.5,175.5C 191.167,175.5 319.833,175.5 448.5,175.5C 448.5,170.167 448.5,164.833 448.5,159.5C 449.489,164.975 449.822,170.642 449.5,176.5C 320.167,176.5 190.833,176.5 61.5,176.5C 61.1778,170.642 61.5111,164.975 62.5,159.5 Z"/></g>
<g><path style="opacity:1" fill="#455a60" d="M 62.5,159.5 C 191.167,159.5 319.833,159.5 448.5,159.5C 448.5,164.833 448.5,170.167 448.5,175.5C 319.833,175.5 191.167,175.5 62.5,175.5C 62.5,170.167 62.5,164.833 62.5,159.5 Z"/></g>
<g><path style="opacity:1" fill="#798b97" d="M 448.5,191.5 C 449.811,198.932 449.811,206.265 448.5,213.5C 432.624,209.852 421.79,215.519 416,230.5C 415.333,247.5 415.333,264.5 416,281.5C 421.968,297.401 433.135,303.067 449.5,298.5C 449.813,305.755 449.48,312.921 448.5,320C 310.167,320.5 171.834,320.667 33.5,320.5C 32.5416,320.047 31.7083,319.381 31,318.5C 30.3333,276.833 30.3333,235.167 31,193.5C 31.5,193 32,192.5 32.5,192C 171.166,191.5 309.833,191.333 448.5,191.5 Z"/></g>
<g><path style="opacity:1" fill="#566872" d="M 448.5,191.5 C 458.506,191.334 468.506,191.5 478.5,192C 479,192.5 479.5,193 480,193.5C 480.667,235.167 480.667,276.833 480,318.5C 479.167,319.333 478.333,320.167 477.5,321C 329.333,321.833 181.333,321.666 33.5,320.5C 171.834,320.667 310.167,320.5 448.5,320C 449.48,312.921 449.813,305.755 449.5,298.5C 454.809,295.356 458.975,291.023 462,285.5C 463.115,275.556 463.615,265.556 463.5,255.5C 463.628,245.763 463.128,236.096 462,226.5C 458.924,220.589 454.424,216.255 448.5,213.5C 449.811,206.265 449.811,198.932 448.5,191.5 Z"/></g>
<g><path style="opacity:1" fill="#020303" d="M 367.5,212.5 C 382.291,211.145 392.124,217.478 397,231.5C 397.667,247.5 397.667,263.5 397,279.5C 390.899,297.8 378.732,303.633 360.5,297C 354.852,293.213 351.018,288.046 349,281.5C 348.333,264.5 348.333,247.5 349,230.5C 352.45,221.548 358.617,215.548 367.5,212.5 Z"/></g>
<g><path style="opacity:1" fill="#020101" d="M 448.5,213.5 C 454.424,216.255 458.924,220.589 462,226.5C 463.128,236.096 463.628,245.763 463.5,255.5C 463.615,265.556 463.115,275.556 462,285.5C 458.975,291.023 454.809,295.356 449.5,298.5C 433.135,303.067 421.968,297.401 416,281.5C 415.333,264.5 415.333,247.5 416,230.5C 421.79,215.519 432.624,209.852 448.5,213.5 Z"/></g>
<g><path style="opacity:1" fill="#040405" d="M 68.5,227.5 C 141.834,227.333 215.167,227.5 288.5,228C 307.58,235.999 313.747,249.832 307,269.5C 302.099,277.724 294.932,282.891 285.5,285C 213.833,285.667 142.167,285.667 70.5,285C 52.7361,279.326 45.2361,267.16 48,248.5C 51.6854,238.316 58.5187,231.316 68.5,227.5 Z"/></g>
<g><path style="opacity:1" fill="#5db1f7" d="M 368.5,227.5 C 374.59,226.137 379.09,228.137 382,233.5C 382.667,248.5 382.667,263.5 382,278.5C 375.897,287.803 369.897,287.803 364,278.5C 363.333,263.5 363.333,248.5 364,233.5C 365.332,231.34 366.832,229.34 368.5,227.5 Z"/></g>
<g><path style="opacity:1" fill="#f5606b" d="M 435.5,227.5 C 442.079,226.038 446.579,228.371 449,234.5C 449.667,248.833 449.667,263.167 449,277.5C 445.937,285.454 440.77,287.287 433.5,283C 432.107,281.829 431.273,280.329 431,278.5C 430.333,263.167 430.333,247.833 431,232.5C 432.707,230.963 434.207,229.296 435.5,227.5 Z"/></g>
<g><path style="opacity:1" fill="#9da9b7" d="M 70.5,242.5 C 142.167,242.333 213.834,242.5 285.5,243C 294.463,247.329 296.963,254.163 293,263.5C 290.76,266.402 287.927,268.569 284.5,270C 213.833,270.667 143.167,270.667 72.5,270C 63.5904,266.347 60.4237,259.847 63,250.5C 65.0282,247.308 67.5282,244.641 70.5,242.5 Z"/></g>
<g><path style="opacity:1" fill="#455a60" d="M 62.5,336.5 C 191.167,336.5 319.833,336.5 448.5,336.5C 448.5,341.5 448.5,346.5 448.5,351.5C 319.833,351.5 191.167,351.5 62.5,351.5C 62.5,346.5 62.5,341.5 62.5,336.5 Z"/></g>
<g><path style="opacity:1" fill="#798b97" d="M 448.5,366.5 C 449.133,370.251 449.467,374.085 449.5,378C 449.488,381.902 448.821,385.402 447.5,388.5C 432.368,385.648 421.868,391.315 416,405.5C 415.333,422.5 415.333,439.5 416,456.5C 421.309,471.652 431.809,477.652 447.5,474.5C 448.82,477.428 449.486,480.761 449.5,484.5C 449.432,488.55 449.098,492.55 448.5,496.5C 310.166,496.667 171.833,496.5 33.5,496C 32.3333,495.5 31.5,494.667 31,493.5C 30.3333,452.167 30.3333,410.833 31,369.5C 31.5,368.333 32.3333,367.5 33.5,367C 171.833,366.5 310.166,366.333 448.5,366.5 Z"/></g>
<g><path style="opacity:1" fill="#576a74" d="M 448.5,366.5 C 458.172,366.334 467.839,366.5 477.5,367C 478.333,367.833 479.167,368.667 480,369.5C 480.333,385.167 480.667,400.833 481,416.5C 482.836,419.324 485.336,420.99 488.5,421.5C 488.5,427.833 488.5,434.167 488.5,440.5C 484.91,440.544 482.41,442.211 481,445.5C 480.819,461.877 480.319,478.211 479.5,494.5C 478.975,495.192 478.308,495.692 477.5,496C 467.839,496.5 458.172,496.666 448.5,496.5C 449.098,492.55 449.432,488.55 449.5,484.5C 449.486,480.761 448.82,477.428 447.5,474.5C 454.393,472.11 459.226,467.443 462,460.5C 463.129,450.737 463.629,440.903 463.5,431C 463.333,422.167 463.167,413.333 463,404.5C 460.289,396.624 455.122,391.291 447.5,388.5C 448.821,385.402 449.488,381.902 449.5,378C 449.467,374.085 449.133,370.251 448.5,366.5 Z"/></g>
<g><path style="opacity:1" fill="#030303" d="M 367.5,387.5 C 382.634,386.483 392.467,393.149 397,407.5C 397.667,423.5 397.667,439.5 397,455.5C 393.656,468.345 385.323,475.012 372,475.5C 360.123,474.292 352.456,467.958 349,456.5C 348.333,439.833 348.333,423.167 349,406.5C 352.017,396.984 358.184,390.651 367.5,387.5 Z"/></g>
<g><path style="opacity:1" fill="#020305" d="M 447.5,388.5 C 455.122,391.291 460.289,396.624 463,404.5C 463.167,413.333 463.333,422.167 463.5,431C 463.629,440.903 463.129,450.737 462,460.5C 459.226,467.443 454.393,472.11 447.5,474.5C 431.809,477.652 421.309,471.652 416,456.5C 415.333,439.5 415.333,422.5 416,405.5C 421.868,391.315 432.368,385.648 447.5,388.5 Z"/></g>
<g><path style="opacity:1" fill="#010101" d="M 69.5,402.5 C 142.167,402.333 214.834,402.5 287.5,403C 304.591,408.769 311.758,420.603 309,438.5C 305.868,449.632 298.702,456.798 287.5,460C 214.833,460.667 142.167,460.667 69.5,460C 51.9341,454.043 44.7674,441.876 48,423.5C 51.7507,412.915 58.9174,405.915 69.5,402.5 Z"/></g>
<g><path style="opacity:1" fill="#f7cb58" d="M 369.5,402.5 C 375.425,401.875 379.591,404.208 382,409.5C 382.667,424.167 382.667,438.833 382,453.5C 378.944,459.943 374.111,461.776 367.5,459C 365.513,457.681 364.346,455.848 364,453.5C 363.333,438.5 363.333,423.5 364,408.5C 365.36,405.977 367.193,403.977 369.5,402.5 Z"/></g>
<g><path style="opacity:1" fill="#5fb5fd" d="M 436.5,402.5 C 441.347,401.84 445.181,403.507 448,407.5C 448.667,423.5 448.667,439.5 448,455.5C 441.833,462.412 436.167,462.079 431,454.5C 430.333,439.167 430.333,423.833 431,408.5C 432.36,405.977 434.193,403.977 436.5,402.5 Z"/></g>
<g><path style="opacity:1" fill="#9eabb9" d="M 71.5,417.5 C 142.501,417.333 213.501,417.5 284.5,418C 295.386,422.657 297.886,430.157 292,440.5C 290.269,442.617 288.102,444.117 285.5,445C 214.167,445.667 142.833,445.667 71.5,445C 62.1704,439.718 60.0038,432.218 65,422.5C 67.3256,420.934 69.4922,419.268 71.5,417.5 Z"/></g>
</svg>
