<?xml version="1.0" encoding="UTF-8"?>
<!DOCTYPE svg PUBLIC "-//W3C//DTD SVG 1.1//EN" "http://www.w3.org/Graphics/SVG/1.1/DTD/svg11.dtd">
<svg xmlns="http://www.w3.org/2000/svg" version="1.1" width="512px" height="512px" style="shape-rendering:geometricPrecision; text-rendering:geometricPrecision; image-rendering:optimizeQuality; fill-rule:evenodd; clip-rule:evenodd" xmlns:xlink="http://www.w3.org/1999/xlink">
<g><path style="opacity:0.973" fill="#020202" d="M 212.5,-0.5 C 241.167,-0.5 269.833,-0.5 298.5,-0.5C 338.06,1.28612 377.393,6.11945 416.5,14C 439.174,17.8868 460.174,25.8868 479.5,38C 486.374,43.2599 490.541,50.0932 492,58.5C 492.667,189.833 492.667,321.167 492,452.5C 491.812,456.877 490.479,460.877 488,464.5C 477.154,475.51 464.32,483.344 449.5,488C 421.063,496.692 392.063,502.692 362.5,506C 341.379,508.22 320.379,510.054 299.5,511.5C 269.833,511.5 240.167,511.5 210.5,511.5C 164.646,509.599 119.313,503.099 74.5,492C 60.9102,488.036 47.9102,482.703 35.5,476C 28.9044,471.406 23.7378,465.573 20,458.5C 18.3436,325.196 18.0102,191.863 19,58.5C 19.9725,49.7221 24.1392,42.8888 31.5,38C 48.6292,26.8465 67.2958,19.8465 87.5,17C 89.6605,17.9959 91.3272,19.4959 92.5,21.5C 92.9534,25.4257 91.6201,28.5923 88.5,31C 72.2633,34.7886 56.93,40.7886 42.5,49C 39.6667,51.1667 37.1667,53.6667 35,56.5C 34.2937,58.9712 34.627,61.3046 36,63.5C 42.3945,69.9534 49.8945,74.7867 58.5,78C 89.0441,88.4426 120.377,95.4426 152.5,99C 220.571,106.331 288.571,106.164 356.5,98.5C 382.165,95.8669 407.499,91.3669 432.5,85C 444.29,81.4384 455.623,76.7717 466.5,71C 471.333,68.1737 474.667,64.1737 476.5,59C 474.647,55.1326 471.98,51.7992 468.5,49C 460.118,43.6488 451.118,39.6488 441.5,37C 415.074,28.8196 388.074,23.3196 360.5,20.5C 281.884,11.6901 203.384,12.6901 125,23.5C 120.664,23.6679 117.83,21.6679 116.5,17.5C 116.245,13.5075 117.911,10.6742 121.5,9C 151.834,4.36729 182.167,1.20062 212.5,-0.5 Z"/></g>
<g><path style="opacity:0.999" fill="#9dbdcb" d="M 360.5,20.5 C 373.717,24.5136 387.05,28.6803 400.5,33C 410.878,36.6004 420.044,42.1004 428,49.5C 432.833,56.6912 432.5,63.6912 427,70.5C 414.979,80.0941 401.479,86.9274 386.5,91C 376.453,93.831 366.453,96.331 356.5,98.5C 288.571,106.164 220.571,106.331 152.5,99C 120.377,95.4426 89.0441,88.4426 58.5,78C 49.8945,74.7867 42.3945,69.9534 36,63.5C 34.627,61.3046 34.2937,58.9712 35,56.5C 37.1667,53.6667 39.6667,51.1667 42.5,49C 56.93,40.7886 72.2633,34.7886 88.5,31C 91.6201,28.5923 92.9534,25.4257 92.5,21.5C 100.521,20.2958 108.521,18.9624 116.5,17.5C 117.83,21.6679 120.664,23.6679 125,23.5C 203.384,12.6901 281.884,11.6901 360.5,20.5 Z"/></g>
<g><path style="opacity:1" fill="#84acba" d="M 360.5,20.5 C 388.074,23.3196 415.074,28.8196 441.5,37C 451.118,39.6488 460.118,43.6488 468.5,49C 471.98,51.7992 474.647,55.1326 476.5,59C 474.667,64.1737 471.333,68.1737 466.5,71C 455.623,76.7717 444.29,81.4384 432.5,85C 407.499,91.3669 382.165,95.8669 356.5,98.5C 366.453,96.331 376.453,93.831 386.5,91C 401.479,86.9274 414.979,80.0941 427,70.5C 432.5,63.6912 432.833,56.6912 428,49.5C 420.044,42.1004 410.878,36.6004 400.5,33C 387.05,28.6803 373.717,24.5136 360.5,20.5 Z"/></g>
<g><path style="opacity:1" fill="#dde8ed" d="M 429.5,101.5 C 430.833,116.485 431.499,131.818 431.5,147.5C 431.333,162.833 431.167,178.167 431,193.5C 428.298,199.54 424.131,204.373 418.5,208C 413.833,210.333 409.167,212.667 404.5,215C 388.931,220.582 373.265,225.415 357.5,229.5C 293.229,235.591 228.895,236.091 164.5,231C 127.456,228.058 91.4559,220.392 56.5,208C 47.932,204.646 40.7654,199.479 35,192.5C 34.3333,155.833 34.3333,119.167 35,82.5C 43.0235,87.5949 51.5235,91.7616 60.5,95C 106.481,108.608 153.481,116.274 201.5,118C 278.272,122.514 354.272,117.014 429.5,101.5 Z"/></g>
<g><path style="opacity:1" fill="#beced5" d="M 357.5,229.5 C 373.265,225.415 388.931,220.582 404.5,215C 409.167,212.667 413.833,210.333 418.5,208C 424.131,204.373 428.298,199.54 431,193.5C 431.167,178.167 431.333,162.833 431.5,147.5C 431.499,131.818 430.833,116.485 429.5,101.5C 445.789,97.278 461.289,90.9446 476,82.5C 476.987,119.918 476.654,157.251 475,194.5C 469.611,199.781 463.444,203.947 456.5,207C 424.539,218.893 391.539,226.393 357.5,229.5 Z"/></g>
<g><path style="opacity:1" fill="#050404" d="M 387.5,135.5 C 405.382,134.015 417.216,141.682 423,158.5C 423.853,183.644 411.687,195.144 386.5,193C 370.035,186.842 363.202,175.009 366,157.5C 369.315,146.352 376.482,139.019 387.5,135.5 Z"/></g>
<g><path style="opacity:1" fill="#f79c3c" d="M 389.5,150.5 C 404.341,150.165 410.175,157.165 407,171.5C 402.532,178.085 396.365,180.252 388.5,178C 379.709,171.622 378.209,163.789 384,154.5C 386.015,153.303 387.849,151.97 389.5,150.5 Z"/></g>
<g><path style="opacity:1" fill="#040505" d="M 89.5,155.5 C 110.441,158.879 131.441,162.045 152.5,165C 212.755,171.308 273.088,172.308 333.5,168C 339.084,173.215 338.75,177.882 332.5,182C 251.893,189.364 171.893,185.364 92.5,170C 85.7613,166.409 84.7613,161.576 89.5,155.5 Z"/></g>
<g><path style="opacity:1" fill="#dde8ed" d="M 431.5,231.5 C 431.978,263.563 431.478,295.563 430,327.5C 424.307,334.853 417.14,340.353 408.5,344C 392.665,350.116 376.665,355.283 360.5,359.5C 345.603,361.492 330.603,362.992 315.5,364C 248.46,368.468 181.793,365.468 115.5,355C 90.2531,351.14 66.2531,343.473 43.5,332C 40,329.833 37.1667,327 35,323.5C 34.1667,286.829 34.3334,250.162 35.5,213.5C 42.7897,217.992 50.4563,221.825 58.5,225C 105.73,239.311 154.063,247.311 203.5,249C 259.667,251.189 315.667,249.189 371.5,243C 391.647,239.871 411.647,236.037 431.5,231.5 Z"/></g>
<g><path style="opacity:1" fill="#beced5" d="M 360.5,359.5 C 376.665,355.283 392.665,350.116 408.5,344C 417.14,340.353 424.307,334.853 430,327.5C 431.478,295.563 431.978,263.563 431.5,231.5C 447.05,227.65 461.717,221.65 475.5,213.5C 476.667,250.162 476.833,286.829 476,323.5C 469.923,330.552 462.423,335.718 453.5,339C 423.312,349.471 392.312,356.305 360.5,359.5 Z"/></g>
<g><path style="opacity:1" fill="#050403" d="M 387.5,264.5 C 405.382,263.015 417.216,270.682 423,287.5C 423.853,312.644 411.687,324.144 386.5,322C 370.035,315.842 363.202,304.009 366,286.5C 369.315,275.352 376.482,268.019 387.5,264.5 Z"/></g>
<g><path style="opacity:1" fill="#f79c3b" d="M 389.5,279.5 C 404.319,279.145 410.152,286.145 407,300.5C 402.532,307.085 396.365,309.252 388.5,307C 379.709,300.622 378.209,292.789 384,283.5C 386.015,282.303 387.849,280.97 389.5,279.5 Z"/></g>
<g><path style="opacity:1" fill="#040505" d="M 91.5,283.5 C 128.433,291.266 165.766,296.099 203.5,298C 246.854,298.724 290.188,298.391 333.5,297C 336.683,298.018 338.016,300.185 337.5,303.5C 337.881,306.325 336.881,308.491 334.5,310C 264.676,316.021 195.01,314.354 125.5,305C 113.296,303.152 101.296,300.485 89.5,297C 85.0338,291.636 85.7005,287.136 91.5,283.5 Z"/></g>
<g><path style="opacity:1" fill="#dde8ed" d="M 430.5,362.5 C 431.664,393.664 431.831,424.997 431,456.5C 428.925,460.579 426.092,464.079 422.5,467C 417.49,470.507 412.157,473.507 406.5,476C 391.917,481.47 377.251,486.303 362.5,490.5C 278.563,500.08 194.897,498.246 111.5,485C 92.2824,481.53 73.6157,476.196 55.5,469C 47.2002,465.691 40.3669,460.524 35,453.5C 34.1668,417.162 34.3334,380.829 35.5,344.5C 55.5737,355.47 76.9071,362.97 99.5,367C 162.64,378.765 226.307,383.098 290.5,380C 337.806,378.868 384.473,373.035 430.5,362.5 Z"/></g>
<g><path style="opacity:1" fill="#beced5" d="M 362.5,490.5 C 377.251,486.303 391.917,481.47 406.5,476C 412.157,473.507 417.49,470.507 422.5,467C 426.092,464.079 428.925,460.579 431,456.5C 431.831,424.997 431.664,393.664 430.5,362.5C 446.208,358.481 461.208,352.481 475.5,344.5C 475.833,362.667 476.167,380.833 476.5,399C 476.655,417.921 476.155,436.754 475,455.5C 464.662,465.255 452.496,471.755 438.5,475C 413.648,482.421 388.315,487.587 362.5,490.5 Z"/></g>
<g><path style="opacity:1" fill="#050404" d="M 388.5,393.5 C 412.419,393.585 423.919,405.585 423,429.5C 414.088,451.198 398.921,457.031 377.5,447C 364.543,435.474 362.043,421.974 370,406.5C 374.952,400.288 381.119,395.954 388.5,393.5 Z"/></g>
<g><path style="opacity:1" fill="#f79b3b" d="M 403.5,412.5 C 397.891,419.778 391.558,426.444 384.5,432.5C 382.864,431.251 381.697,429.584 381,427.5C 378.988,416.842 383.322,410.509 394,408.5C 397.801,408.592 400.968,409.926 403.5,412.5 Z"/></g>
<g><path style="opacity:1" fill="#e6812d" d="M 403.5,412.5 C 409.152,418.035 409.985,424.369 406,431.5C 398.933,438.93 391.767,439.263 384.5,432.5C 391.558,426.444 397.891,419.778 403.5,412.5 Z"/></g>
<g><path style="opacity:1" fill="#050606" d="M 91.5,414.5 C 146.581,425.625 202.247,430.792 258.5,430C 266.481,433.228 267.481,437.895 261.5,444C 204.152,446.371 147.485,441.371 91.5,429C 84.8685,424.086 84.8685,419.253 91.5,414.5 Z"/></g>
<g><path style="opacity:1" fill="#060607" d="M 313.5,427.5 C 320.175,427.334 326.842,427.5 333.5,428C 334.931,428.465 336.097,429.299 337,430.5C 338.992,436.337 337.158,440.171 331.5,442C 319.18,443.1 306.846,443.433 294.5,443C 289.289,438.632 289.289,434.299 294.5,430C 300.935,428.961 307.269,428.127 313.5,427.5 Z"/></g>
</svg>
