<svg xmlns="http://www.w3.org/2000/svg" viewBox="0 0 24 24" fill="none" stroke="currentColor" stroke-width="1.5">
  <!-- Monitor Base -->
  <rect x="4" y="6" width="16" height="10" rx="1" fill="#6b7280" stroke="#4b5563" stroke-width="0.5"/>
  
  <!-- Screen -->
  <rect x="5" y="7" width="14" height="8" rx="0.5" fill="#1f2937" stroke="#374151" stroke-width="0.3"/>
  
  <!-- Screen Content -->
  <rect x="6" y="8" width="12" height="6" rx="0.3" fill="#111827"/>
  
  <!-- Terminal Lines -->
  <rect x="7" y="8.5" width="6" height="0.3" rx="0.1" fill="#10b981"/>
  <rect x="7" y="9.2" width="8" height="0.3" rx="0.1" fill="#3b82f6"/>
  <rect x="7" y="9.9" width="4" height="0.3" rx="0.1" fill="#fbbf24"/>
  <rect x="7" y="10.6" width="7" height="0.3" rx="0.1" fill="#ef4444"/>
  <rect x="7" y="11.3" width="5" height="0.3" rx="0.1" fill="#8b5cf6"/>
  <rect x="7" y="12" width="9" height="0.3" rx="0.1" fill="#06b6d4"/>
  <rect x="7" y="12.7" width="3" height="0.3" rx="0.1" fill="#f59e0b"/>
  <rect x="7" y="13.4" width="6" height="0.3" rx="0.1" fill="#84cc16"/>
  
  <!-- Cursor -->
  <rect x="13" y="13.4" width="0.2" height="0.3" fill="#10b981"/>
  
  <!-- Stand -->
  <rect x="10" y="16" width="4" height="1.5" rx="0.3" fill="#4b5563" stroke="#374151" stroke-width="0.2"/>
  <rect x="8" y="17.5" width="8" height="0.8" rx="0.4" fill="#6b7280" stroke="#4b5563" stroke-width="0.2"/>
  
  <!-- Power LED -->
  <circle cx="19" cy="7.5" r="0.4" fill="#10b981"/>
  
  <!-- Bezel -->
  <rect x="4.5" y="6.5" width="15" height="0.3" rx="0.1" fill="#9ca3af"/>
  <rect x="4.5" y="15.7" width="15" height="0.3" rx="0.1" fill="#9ca3af"/>
</svg>
