<?xml version="1.0" encoding="UTF-8"?>
<!DOCTYPE svg PUBLIC "-//W3C//DTD SVG 1.1//EN" "http://www.w3.org/Graphics/SVG/1.1/DTD/svg11.dtd">
<svg xmlns="http://www.w3.org/2000/svg" version="1.1" width="512px" height="512px" style="shape-rendering:geometricPrecision; text-rendering:geometricPrecision; image-rendering:optimizeQuality; fill-rule:evenodd; clip-rule:evenodd" xmlns:xlink="http://www.w3.org/1999/xlink">
<g><path style="opacity:0.982" fill="#000000" d="M 511.5,170.5 C 511.5,227.167 511.5,283.833 511.5,340.5C 509.99,341.836 508.323,343.003 506.5,344C 497.173,344.5 487.839,344.666 478.5,344.5C 478.666,352.84 478.5,361.173 478,369.5C 477.167,371.667 475.667,373.167 473.5,374C 328.167,374.667 182.833,374.667 37.5,374C 35.3333,373.167 33.8333,371.667 33,369.5C 32.5003,361.173 32.3336,352.84 32.5,344.5C 23.1607,344.666 13.8274,344.5 4.5,344C 2.67694,343.003 1.01027,341.836 -0.5,340.5C -0.5,332.167 -0.5,323.833 -0.5,315.5C 1.37183,313.396 3.70516,312.063 6.5,311.5C 9.58675,312.053 12.0867,313.72 14,316.5C 14.499,320.821 14.6657,325.154 14.5,329.5C 149.167,329.333 283.834,329.5 418.5,330C 421.222,331.272 422.556,333.439 422.5,336.5C 422.556,339.561 421.222,341.728 418.5,343C 295.167,343.333 171.833,343.667 48.5,344C 47.1764,348.933 47.1764,353.766 48.5,358.5C 186.332,359.5 324.332,359.833 462.5,359.5C 462.5,354.167 462.5,348.833 462.5,343.5C 456.491,343.666 450.491,343.499 444.5,343C 442.65,342.31 441.316,341.144 440.5,339.5C 440.5,338.5 440.5,337.5 440.5,336.5C 440.41,332.335 442.41,330.002 446.5,329.5C 463.167,329.5 479.833,329.5 496.5,329.5C 496.5,280.167 496.5,230.833 496.5,181.5C 362.5,181.5 228.5,181.5 94.5,181.5C 90.4098,180.998 88.4098,178.665 88.5,174.5C 88.4098,170.335 90.4098,168.002 94.5,167.5C 217.167,167.667 339.834,167.5 462.5,167C 463.824,162.067 463.824,157.234 462.5,152.5C 324.334,151.5 186.001,151.167 47.5,151.5C 47.5,156.833 47.5,162.167 47.5,167.5C 53.1667,167.5 58.8333,167.5 64.5,167.5C 68.1286,168.417 70.1286,170.75 70.5,174.5C 70.2204,177.287 68.887,179.453 66.5,181C 49.1699,181.5 31.8365,181.667 14.5,181.5C 14.6667,217.835 14.5,254.168 14,290.5C 12.0867,293.28 9.58675,294.947 6.5,295.5C 3.70516,294.937 1.37183,293.604 -0.5,291.5C -0.5,251.167 -0.5,210.833 -0.5,170.5C 1.01027,169.164 2.67694,167.997 4.5,167C 13.8274,166.5 23.1607,166.334 32.5,166.5C 32.3336,158.16 32.5003,149.827 33,141.5C 33.8333,139.333 35.3333,137.833 37.5,137C 182.833,136.333 328.167,136.333 473.5,137C 475.667,137.833 477.167,139.333 478,141.5C 478.5,149.827 478.666,158.16 478.5,166.5C 487.839,166.334 497.173,166.5 506.5,167C 508.323,167.997 509.99,169.164 511.5,170.5 Z"/></g>
<g><path style="opacity:1" fill="#742932" d="M 462.5,152.5 C 455.167,152.5 447.833,152.5 440.5,152.5C 309.833,152.5 179.167,152.5 48.5,152.5C 48.5,157.167 48.5,161.833 48.5,166.5C 54.0262,166.179 59.3595,166.512 64.5,167.5C 58.8333,167.5 53.1667,167.5 47.5,167.5C 47.5,162.167 47.5,156.833 47.5,151.5C 186.001,151.167 324.334,151.5 462.5,152.5 Z"/></g>
<g><path style="opacity:1" fill="#eb5468" d="M 440.5,152.5 C 440.5,157.167 440.5,161.833 440.5,166.5C 324.999,166.167 209.665,166.5 94.5,167.5C 90.4098,168.002 88.4098,170.335 88.5,174.5C 82.5,174.5 76.5,174.5 70.5,174.5C 70.1286,170.75 68.1286,168.417 64.5,167.5C 59.3595,166.512 54.0262,166.179 48.5,166.5C 48.5,161.833 48.5,157.167 48.5,152.5C 179.167,152.5 309.833,152.5 440.5,152.5 Z"/></g>
<g><path style="opacity:1" fill="#a02b30" d="M 440.5,152.5 C 447.833,152.5 455.167,152.5 462.5,152.5C 463.824,157.234 463.824,162.067 462.5,167C 339.834,167.5 217.167,167.667 94.5,167.5C 209.665,166.5 324.999,166.167 440.5,166.5C 440.5,161.833 440.5,157.167 440.5,152.5 Z"/></g>
<g><path style="opacity:1" fill="#c7d6dc" d="M 70.5,174.5 C 76.5,174.5 82.5,174.5 88.5,174.5C 88.4098,178.665 90.4098,180.998 94.5,181.5C 220.999,182.5 347.666,182.833 474.5,182.5C 474.5,193.5 474.5,204.5 474.5,215.5C 450.994,215.169 427.661,215.502 404.5,216.5C 402.284,217.203 400.451,218.536 399,220.5C 398.333,237.833 398.333,255.167 399,272.5C 402.298,276.165 406.465,277.498 411.5,276.5C 411.334,280.514 411.501,284.514 412,288.5C 412.346,290.848 413.513,292.681 415.5,294C 431.833,294.667 448.167,294.667 464.5,294C 466.487,292.681 467.654,290.848 468,288.5C 468.499,284.848 468.665,281.182 468.5,277.5C 470.5,277.5 472.5,277.5 474.5,277.5C 474.5,294.5 474.5,311.5 474.5,328.5C 464.985,328.173 455.652,328.506 446.5,329.5C 442.41,330.002 440.41,332.335 440.5,336.5C 434.5,336.5 428.5,336.5 422.5,336.5C 422.556,333.439 421.222,331.272 418.5,330C 283.834,329.5 149.167,329.333 14.5,329.5C 14.6657,325.154 14.499,320.821 14,316.5C 12.0867,313.72 9.58675,312.053 6.5,311.5C 6.5,306.167 6.5,300.833 6.5,295.5C 9.58675,294.947 12.0867,293.28 14,290.5C 14.5,254.168 14.6667,217.835 14.5,181.5C 31.8365,181.667 49.1699,181.5 66.5,181C 68.887,179.453 70.2204,177.287 70.5,174.5 Z"/></g>
<g><path style="opacity:1" fill="#9da9ae" d="M 94.5,181.5 C 228.5,181.5 362.5,181.5 496.5,181.5C 496.5,230.833 496.5,280.167 496.5,329.5C 479.833,329.5 463.167,329.5 446.5,329.5C 455.652,328.506 464.985,328.173 474.5,328.5C 474.5,311.5 474.5,294.5 474.5,277.5C 472.5,277.5 470.5,277.5 468.5,277.5C 471.305,276.681 474.305,276.181 477.5,276C 478.667,274.833 479.833,273.667 481,272.5C 481.667,255.167 481.667,237.833 481,220.5C 479.833,219.333 478.667,218.167 477.5,217C 453.169,216.5 428.836,216.333 404.5,216.5C 427.661,215.502 450.994,215.169 474.5,215.5C 474.5,204.5 474.5,193.5 474.5,182.5C 347.666,182.833 220.999,182.5 94.5,181.5 Z"/></g>
<g><path style="opacity:1" fill="#020202" d="M 196.5,276.5 C 194.167,276.5 191.833,276.5 189.5,276.5C 189.5,280.5 189.5,284.5 189.5,288.5C 189.262,291.148 187.928,292.982 185.5,294C 169.5,294.667 153.5,294.667 137.5,294C 136.333,292.833 135.167,291.667 134,290.5C 133.501,285.845 133.334,281.179 133.5,276.5C 130.482,276.665 127.482,276.498 124.5,276C 122.667,275.5 121.5,274.333 121,272.5C 120.333,255.167 120.333,237.833 121,220.5C 121.5,218.667 122.667,217.5 124.5,217C 149.5,216.333 174.5,216.333 199.5,217C 200.333,217.833 201.167,218.667 202,219.5C 203.624,236.433 203.957,253.433 203,270.5C 202.236,274.099 200.07,276.099 196.5,276.5 Z"/></g>
<g><path style="opacity:1" fill="#030405" d="M 289.5,276.5 C 287.167,276.5 284.833,276.5 282.5,276.5C 282.5,280.5 282.5,284.5 282.5,288.5C 282.262,291.148 280.928,292.982 278.5,294C 262.5,294.667 246.5,294.667 230.5,294C 228.113,292.453 226.78,290.287 226.5,287.5C 226.5,283.833 226.5,280.167 226.5,276.5C 224.167,276.5 221.833,276.5 219.5,276.5C 216.852,276.262 215.018,274.928 214,272.5C 213.027,254.409 213.361,236.409 215,218.5C 215.75,217.874 216.584,217.374 217.5,217C 242.5,216.333 267.5,216.333 292.5,217C 293.333,217.833 294.167,218.667 295,219.5C 296.638,236.409 296.971,253.409 296,270.5C 295.236,274.099 293.07,276.099 289.5,276.5 Z"/></g>
<g><path style="opacity:1" fill="#020203" d="M 319.5,288.5 C 319.5,284.5 319.5,280.5 319.5,276.5C 316.833,276.5 314.167,276.5 311.5,276.5C 308.482,275.647 306.649,273.647 306,270.5C 305.029,253.409 305.362,236.409 307,219.5C 307.833,218.667 308.667,217.833 309.5,217C 334.5,216.333 359.5,216.333 384.5,217C 386.333,217.5 387.5,218.667 388,220.5C 388.667,237.833 388.667,255.167 388,272.5C 387.5,274.333 386.333,275.5 384.5,276C 381.518,276.498 378.518,276.665 375.5,276.5C 375.666,281.179 375.499,285.845 375,290.5C 374.167,292 373,293.167 371.5,294C 355.5,294.667 339.5,294.667 323.5,294C 321.072,292.982 319.738,291.148 319.5,288.5 Z"/></g>
<g><path style="opacity:1" fill="#020202" d="M 404.5,216.5 C 428.836,216.333 453.169,216.5 477.5,217C 478.667,218.167 479.833,219.333 481,220.5C 481.667,237.833 481.667,255.167 481,272.5C 479.833,273.667 478.667,274.833 477.5,276C 474.305,276.181 471.305,276.681 468.5,277.5C 468.665,281.182 468.499,284.848 468,288.5C 467.654,290.848 466.487,292.681 464.5,294C 448.167,294.667 431.833,294.667 415.5,294C 413.513,292.681 412.346,290.848 412,288.5C 411.501,284.514 411.334,280.514 411.5,276.5C 406.465,277.498 402.298,276.165 399,272.5C 398.333,255.167 398.333,237.833 399,220.5C 400.451,218.536 402.284,217.203 404.5,216.5 Z"/></g>
<g><path style="opacity:1" fill="#020202" d="M 37.5,217.5 C 58.5026,217.333 79.5026,217.5 100.5,218C 104.212,220.602 105.378,224.102 104,228.5C 102.681,230.487 100.848,231.654 98.5,232C 78.1667,232.667 57.8333,232.667 37.5,232C 32.2018,227.092 32.2018,222.258 37.5,217.5 Z"/></g>
<g><path style="opacity:1" fill="#252938" d="M 135.5,231.5 C 152.992,230.503 170.659,230.17 188.5,230.5C 188.5,241.167 188.5,251.833 188.5,262.5C 185.833,262.5 183.167,262.5 180.5,262.5C 182.607,261.532 184.941,261.198 187.5,261.5C 187.5,251.5 187.5,241.5 187.5,231.5C 170.167,231.5 152.833,231.5 135.5,231.5 Z"/></g>
<g><path style="opacity:1" fill="#252837" d="M 373.5,231.5 C 356.167,231.5 338.833,231.5 321.5,231.5C 321.5,241.5 321.5,251.5 321.5,261.5C 323.735,261.205 325.735,261.539 327.5,262.5C 325.167,262.5 322.833,262.5 320.5,262.5C 320.5,251.833 320.5,241.167 320.5,230.5C 338.341,230.17 356.008,230.503 373.5,231.5 Z"/></g>
<g><path style="opacity:1" fill="#434a65" d="M 135.5,231.5 C 152.833,231.5 170.167,231.5 187.5,231.5C 187.5,241.5 187.5,251.5 187.5,261.5C 184.941,261.198 182.607,261.532 180.5,262.5C 178.629,262.859 177.129,263.859 176,265.5C 174.691,270.066 174.191,274.733 174.5,279.5C 165.833,279.5 157.167,279.5 148.5,279.5C 148.666,275.154 148.499,270.821 148,266.5C 144.943,262.226 140.777,260.56 135.5,261.5C 135.5,251.5 135.5,241.5 135.5,231.5 Z"/></g>
<g><path style="opacity:1" fill="#434a65" d="M 228.5,231.5 C 246.167,231.5 263.833,231.5 281.5,231.5C 281.5,241.5 281.5,251.5 281.5,261.5C 269.263,261.232 264.597,267.232 267.5,279.5C 258.833,279.5 250.167,279.5 241.5,279.5C 244.713,267.742 240.379,261.742 228.5,261.5C 228.5,251.5 228.5,241.5 228.5,231.5 Z"/></g>
<g><path style="opacity:1" fill="#434a65" d="M 373.5,231.5 C 373.5,241.5 373.5,251.5 373.5,261.5C 368.223,260.56 364.057,262.226 361,266.5C 360.501,270.821 360.334,275.154 360.5,279.5C 351.833,279.5 343.167,279.5 334.5,279.5C 334.666,275.486 334.499,271.486 334,267.5C 332.809,264.466 330.642,262.799 327.5,262.5C 325.735,261.539 323.735,261.205 321.5,261.5C 321.5,251.5 321.5,241.5 321.5,231.5C 338.833,231.5 356.167,231.5 373.5,231.5 Z"/></g>
<g><path style="opacity:1" fill="#434a65" d="M 413.5,231.5 C 431.167,231.5 448.833,231.5 466.5,231.5C 466.5,241.5 466.5,251.5 466.5,261.5C 462.247,260.986 458.413,261.986 455,264.5C 453.612,269.372 453.112,274.372 453.5,279.5C 444.5,279.5 435.5,279.5 426.5,279.5C 426.888,274.372 426.388,269.372 425,264.5C 421.587,261.986 417.753,260.986 413.5,261.5C 413.5,251.5 413.5,241.5 413.5,231.5 Z"/></g>
<g><path style="opacity:1" fill="#060707" d="M 38.5,237.5 C 58.5028,237.333 78.5028,237.5 98.5,238C 104.616,240.321 106.116,244.488 103,250.5C 102.25,251.126 101.416,251.626 100.5,252C 79.5,252.667 58.5,252.667 37.5,252C 32.068,246.761 32.4013,241.928 38.5,237.5 Z"/></g>
<g><path style="opacity:1" fill="#060707" d="M 37.5,258.5 C 58.5026,258.333 79.5026,258.5 100.5,259C 104.696,261.981 105.529,265.814 103,270.5C 101.829,271.893 100.329,272.727 98.5,273C 78.5,273.667 58.5,273.667 38.5,273C 32.2917,268.58 31.9583,263.747 37.5,258.5 Z"/></g>
<g><path style="opacity:1" fill="#656d70" d="M 196.5,276.5 C 194.735,277.461 192.735,277.795 190.5,277.5C 190.815,281.371 190.482,285.038 189.5,288.5C 189.5,284.5 189.5,280.5 189.5,276.5C 191.833,276.5 194.167,276.5 196.5,276.5 Z"/></g>
<g><path style="opacity:1" fill="#939ea3" d="M 219.5,276.5 C 221.833,276.5 224.167,276.5 226.5,276.5C 226.5,280.167 226.5,283.833 226.5,287.5C 225.521,284.375 225.187,281.042 225.5,277.5C 223.265,277.795 221.265,277.461 219.5,276.5 Z"/></g>
<g><path style="opacity:1" fill="#828c90" d="M 289.5,276.5 C 287.735,277.461 285.735,277.795 283.5,277.5C 283.815,281.371 283.482,285.038 282.5,288.5C 282.5,284.5 282.5,280.5 282.5,276.5C 284.833,276.5 287.167,276.5 289.5,276.5 Z"/></g>
<g><path style="opacity:1" fill="#6b7477" d="M 311.5,276.5 C 314.167,276.5 316.833,276.5 319.5,276.5C 319.5,280.5 319.5,284.5 319.5,288.5C 318.518,285.038 318.185,281.371 318.5,277.5C 315.941,277.802 313.607,277.468 311.5,276.5 Z"/></g>
<g><path style="opacity:1" fill="#020202" d="M 37.5,278.5 C 57.8361,278.333 78.1694,278.5 98.5,279C 104.059,280.458 105.892,283.958 104,289.5C 102.833,290.667 101.667,291.833 100.5,293C 79.5,293.667 58.5,293.667 37.5,293C 32.2138,288.169 32.2138,283.335 37.5,278.5 Z"/></g>
<g><path style="opacity:1" fill="#6a6782" d="M 422.5,336.5 C 428.5,336.5 434.5,336.5 440.5,336.5C 440.5,337.5 440.5,338.5 440.5,339.5C 440.5,345.833 440.5,352.167 440.5,358.5C 309.833,358.5 179.167,358.5 48.5,358.5C 47.1764,353.766 47.1764,348.933 48.5,344C 171.833,343.667 295.167,343.333 418.5,343C 421.222,341.728 422.556,339.561 422.5,336.5 Z"/></g>
<g><path style="opacity:1" fill="#504d62" d="M 440.5,339.5 C 441.316,341.144 442.65,342.31 444.5,343C 450.491,343.499 456.491,343.666 462.5,343.5C 462.5,348.833 462.5,354.167 462.5,359.5C 324.332,359.833 186.332,359.5 48.5,358.5C 179.167,358.5 309.833,358.5 440.5,358.5C 440.5,352.167 440.5,345.833 440.5,339.5 Z"/></g>
</svg>
