<svg xmlns="http://www.w3.org/2000/svg" viewBox="0 0 24 24" fill="none" stroke="currentColor" stroke-width="1.5">
  <!-- Switch Chassis -->
  <rect x="3" y="7" width="18" height="10" rx="1.5" fill="#059669" stroke="#047857" stroke-width="0.5"/>
  
  <!-- Front Panel -->
  <rect x="4" y="8" width="16" height="8" rx="0.5" fill="#10b981" stroke="#059669" stroke-width="0.3"/>
  
  <!-- Port Grid - Top Row -->
  <rect x="5" y="9" width="1.2" height="1" rx="0.2" fill="#34d399" stroke="#059669" stroke-width="0.1"/>
  <rect x="6.5" y="9" width="1.2" height="1" rx="0.2" fill="#34d399" stroke="#059669" stroke-width="0.1"/>
  <rect x="8" y="9" width="1.2" height="1" rx="0.2" fill="#34d399" stroke="#059669" stroke-width="0.1"/>
  <rect x="9.5" y="9" width="1.2" height="1" rx="0.2" fill="#34d399" stroke="#059669" stroke-width="0.1"/>
  <rect x="11" y="9" width="1.2" height="1" rx="0.2" fill="#34d399" stroke="#059669" stroke-width="0.1"/>
  <rect x="12.5" y="9" width="1.2" height="1" rx="0.2" fill="#34d399" stroke="#059669" stroke-width="0.1"/>
  <rect x="14" y="9" width="1.2" height="1" rx="0.2" fill="#6ee7b7" stroke="#059669" stroke-width="0.1"/>
  <rect x="15.5" y="9" width="1.2" height="1" rx="0.2" fill="#6ee7b7" stroke="#059669" stroke-width="0.1"/>
  <rect x="17" y="9" width="1.2" height="1" rx="0.2" fill="#6ee7b7" stroke="#059669" stroke-width="0.1"/>
  <rect x="18.5" y="9" width="1.2" height="1" rx="0.2" fill="#6ee7b7" stroke="#059669" stroke-width="0.1"/>
  
  <!-- Port Grid - Middle Row -->
  <rect x="5" y="10.5" width="1.2" height="1" rx="0.2" fill="#34d399" stroke="#059669" stroke-width="0.1"/>
  <rect x="6.5" y="10.5" width="1.2" height="1" rx="0.2" fill="#34d399" stroke="#059669" stroke-width="0.1"/>
  <rect x="8" y="10.5" width="1.2" height="1" rx="0.2" fill="#34d399" stroke="#059669" stroke-width="0.1"/>
  <rect x="9.5" y="10.5" width="1.2" height="1" rx="0.2" fill="#34d399" stroke="#059669" stroke-width="0.1"/>
  <rect x="11" y="10.5" width="1.2" height="1" rx="0.2" fill="#34d399" stroke="#059669" stroke-width="0.1"/>
  <rect x="12.5" y="10.5" width="1.2" height="1" rx="0.2" fill="#34d399" stroke="#059669" stroke-width="0.1"/>
  <rect x="14" y="10.5" width="1.2" height="1" rx="0.2" fill="#34d399" stroke="#059669" stroke-width="0.1"/>
  <rect x="15.5" y="10.5" width="1.2" height="1" rx="0.2" fill="#34d399" stroke="#059669" stroke-width="0.1"/>
  <rect x="17" y="10.5" width="1.2" height="1" rx="0.2" fill="#6ee7b7" stroke="#059669" stroke-width="0.1"/>
  <rect x="18.5" y="10.5" width="1.2" height="1" rx="0.2" fill="#6ee7b7" stroke="#059669" stroke-width="0.1"/>
  
  <!-- Port Grid - Bottom Row -->
  <rect x="5" y="12" width="1.2" height="1" rx="0.2" fill="#34d399" stroke="#059669" stroke-width="0.1"/>
  <rect x="6.5" y="12" width="1.2" height="1" rx="0.2" fill="#34d399" stroke="#059669" stroke-width="0.1"/>
  <rect x="8" y="12" width="1.2" height="1" rx="0.2" fill="#34d399" stroke="#059669" stroke-width="0.1"/>
  <rect x="9.5" y="12" width="1.2" height="1" rx="0.2" fill="#34d399" stroke="#059669" stroke-width="0.1"/>
  <rect x="11" y="12" width="1.2" height="1" rx="0.2" fill="#34d399" stroke="#059669" stroke-width="0.1"/>
  <rect x="12.5" y="12" width="1.2" height="1" rx="0.2" fill="#34d399" stroke="#059669" stroke-width="0.1"/>
  <rect x="14" y="12" width="1.2" height="1" rx="0.2" fill="#34d399" stroke="#059669" stroke-width="0.1"/>
  <rect x="15.5" y="12" width="1.2" height="1" rx="0.2" fill="#34d399" stroke="#059669" stroke-width="0.1"/>
  <rect x="17" y="12" width="1.2" height="1" rx="0.2" fill="#34d399" stroke="#059669" stroke-width="0.1"/>
  <rect x="18.5" y="12" width="1.2" height="1" rx="0.2" fill="#34d399" stroke="#059669" stroke-width="0.1"/>
  
  <!-- SFP+ Ports -->
  <rect x="5" y="13.5" width="2" height="1.5" rx="0.3" fill="#047857" stroke="#065f46" stroke-width="0.2"/>
  <rect x="7.5" y="13.5" width="2" height="1.5" rx="0.3" fill="#047857" stroke="#065f46" stroke-width="0.2"/>
  <rect x="10" y="13.5" width="2" height="1.5" rx="0.3" fill="#047857" stroke="#065f46" stroke-width="0.2"/>
  <rect x="12.5" y="13.5" width="2" height="1.5" rx="0.3" fill="#047857" stroke="#065f46" stroke-width="0.2"/>
  
  <!-- Status LEDs -->
  <circle cx="16" cy="14.2" r="0.4" fill="#10b981"/>
  <circle cx="17" cy="14.2" r="0.4" fill="#fbbf24"/>
  <circle cx="18" cy="14.2" r="0.4" fill="#ef4444"/>
  
  <!-- Label -->
  <rect x="15.5" y="13.5" width="4" height="1" rx="0.2" fill="#064e3b"/>
  <text x="17.5" y="14.1" font-family="Arial, sans-serif" font-size="0.6" fill="white" text-anchor="middle">48P</text>
</svg>
