<svg xmlns="http://www.w3.org/2000/svg" viewBox="0 0 24 24" fill="none" stroke="currentColor" stroke-width="1.5">
  <!-- Server Chassis -->
  <rect x="2" y="4" width="20" height="16" rx="1.5" fill="#2563eb" stroke="#1e40af" stroke-width="0.5"/>
  
  <!-- Server Units -->
  <rect x="3" y="5.5" width="18" height="3" rx="0.5" fill="#3b82f6" stroke="#1e40af" stroke-width="0.3"/>
  <rect x="3" y="9" width="18" height="3" rx="0.5" fill="#3b82f6" stroke="#1e40af" stroke-width="0.3"/>
  <rect x="3" y="12.5" width="18" height="3" rx="0.5" fill="#3b82f6" stroke="#1e40af" stroke-width="0.3"/>
  <rect x="3" y="16" width="18" height="3" rx="0.5" fill="#3b82f6" stroke="#1e40af" stroke-width="0.3"/>
  
  <!-- Power LEDs -->
  <circle cx="5" cy="7" r="0.8" fill="#10b981"/>
  <circle cx="5" cy="10.5" r="0.8" fill="#10b981"/>
  <circle cx="5" cy="14" r="0.8" fill="#10b981"/>
  <circle cx="5" cy="17.5" r="0.8" fill="#fbbf24"/>
  
  <!-- Drive Bays -->
  <rect x="7" y="6.2" width="2" height="1.6" rx="0.2" fill="#64748b"/>
  <rect x="9.5" y="6.2" width="2" height="1.6" rx="0.2" fill="#64748b"/>
  <rect x="12" y="6.2" width="2" height="1.6" rx="0.2" fill="#64748b"/>
  <rect x="14.5" y="6.2" width="2" height="1.6" rx="0.2" fill="#475569"/>
  
  <rect x="7" y="9.7" width="2" height="1.6" rx="0.2" fill="#64748b"/>
  <rect x="9.5" y="9.7" width="2" height="1.6" rx="0.2" fill="#64748b"/>
  <rect x="12" y="9.7" width="2" height="1.6" rx="0.2" fill="#475569"/>
  <rect x="14.5" y="9.7" width="2" height="1.6" rx="0.2" fill="#475569"/>
  
  <!-- Network Ports -->
  <rect x="17.5" y="6.5" width="2.5" height="1" rx="0.2" fill="#374151"/>
  <rect x="17.5" y="10" width="2.5" height="1" rx="0.2" fill="#374151"/>
  <rect x="17.5" y="13.5" width="2.5" height="1" rx="0.2" fill="#374151"/>
  <rect x="17.5" y="17" width="2.5" height="1" rx="0.2" fill="#374151"/>
  
  <!-- Rails -->
  <rect x="1" y="4" width="1" height="16" rx="0.5" fill="#6b7280"/>
  <rect x="22" y="4" width="1" height="16" rx="0.5" fill="#6b7280"/>
</svg>
