<svg xmlns="http://www.w3.org/2000/svg" viewBox="0 0 24 24" fill="none" stroke="currentColor" stroke-width="1.5">
  <!-- Storage Array Base -->
  <rect x="3" y="5" width="18" height="14" rx="2" fill="#7c3aed" stroke="#6d28d9" stroke-width="0.5"/>
  
  <!-- Top Panel -->
  <rect x="4" y="6" width="16" height="2.5" rx="0.5" fill="#8b5cf6" stroke="#7c3aed" stroke-width="0.3"/>
  
  <!-- Drive Bay Grid -->
  <rect x="5" y="9.5" width="2" height="1.5" rx="0.3" fill="#a855f7" stroke="#7c3aed" stroke-width="0.2"/>
  <rect x="7.5" y="9.5" width="2" height="1.5" rx="0.3" fill="#a855f7" stroke="#7c3aed" stroke-width="0.2"/>
  <rect x="10" y="9.5" width="2" height="1.5" rx="0.3" fill="#a855f7" stroke="#7c3aed" stroke-width="0.2"/>
  <rect x="12.5" y="9.5" width="2" height="1.5" rx="0.3" fill="#a855f7" stroke="#7c3aed" stroke-width="0.2"/>
  <rect x="15" y="9.5" width="2" height="1.5" rx="0.3" fill="#a855f7" stroke="#7c3aed" stroke-width="0.2"/>
  <rect x="17.5" y="9.5" width="1.5" height="1.5" rx="0.3" fill="#a855f7" stroke="#7c3aed" stroke-width="0.2"/>
  
  <rect x="5" y="11.5" width="2" height="1.5" rx="0.3" fill="#a855f7" stroke="#7c3aed" stroke-width="0.2"/>
  <rect x="7.5" y="11.5" width="2" height="1.5" rx="0.3" fill="#a855f7" stroke="#7c3aed" stroke-width="0.2"/>
  <rect x="10" y="11.5" width="2" height="1.5" rx="0.3" fill="#c084fc" stroke="#7c3aed" stroke-width="0.2"/>
  <rect x="12.5" y="11.5" width="2" height="1.5" rx="0.3" fill="#c084fc" stroke="#7c3aed" stroke-width="0.2"/>
  <rect x="15" y="11.5" width="2" height="1.5" rx="0.3" fill="#c084fc" stroke="#7c3aed" stroke-width="0.2"/>
  <rect x="17.5" y="11.5" width="1.5" height="1.5" rx="0.3" fill="#c084fc" stroke="#7c3aed" stroke-width="0.2"/>
  
  <rect x="5" y="13.5" width="2" height="1.5" rx="0.3" fill="#a855f7" stroke="#7c3aed" stroke-width="0.2"/>
  <rect x="7.5" y="13.5" width="2" height="1.5" rx="0.3" fill="#a855f7" stroke="#7c3aed" stroke-width="0.2"/>
  <rect x="10" y="13.5" width="2" height="1.5" rx="0.3" fill="#a855f7" stroke="#7c3aed" stroke-width="0.2"/>
  <rect x="12.5" y="13.5" width="2" height="1.5" rx="0.3" fill="#a855f7" stroke="#7c3aed" stroke-width="0.2"/>
  <rect x="15" y="13.5" width="2" height="1.5" rx="0.3" fill="#a855f7" stroke="#7c3aed" stroke-width="0.2"/>
  <rect x="17.5" y="13.5" width="1.5" height="1.5" rx="0.3" fill="#a855f7" stroke="#7c3aed" stroke-width="0.2"/>
  
  <rect x="5" y="15.5" width="2" height="1.5" rx="0.3" fill="#a855f7" stroke="#7c3aed" stroke-width="0.2"/>
  <rect x="7.5" y="15.5" width="2" height="1.5" rx="0.3" fill="#a855f7" stroke="#7c3aed" stroke-width="0.2"/>
  <rect x="10" y="15.5" width="2" height="1.5" rx="0.3" fill="#a855f7" stroke="#7c3aed" stroke-width="0.2"/>
  <rect x="12.5" y="15.5" width="2" height="1.5" rx="0.3" fill="#a855f7" stroke="#7c3aed" stroke-width="0.2"/>
  <rect x="15" y="15.5" width="2" height="1.5" rx="0.3" fill="#a855f7" stroke="#7c3aed" stroke-width="0.2"/>
  <rect x="17.5" y="15.5" width="1.5" height="1.5" rx="0.3" fill="#a855f7" stroke="#7c3aed" stroke-width="0.2"/>
  
  <!-- Status LEDs -->
  <circle cx="6" cy="7.2" r="0.4" fill="#10b981"/>
  <circle cx="8" cy="7.2" r="0.4" fill="#10b981"/>
  <circle cx="10" cy="7.2" r="0.4" fill="#fbbf24"/>
  <circle cx="12" cy="7.2" r="0.4" fill="#10b981"/>
  
  <!-- Label -->
  <rect x="14" y="6.8" width="4" height="1" rx="0.2" fill="#4c1d95"/>
  <text x="16" y="7.5" font-family="Arial, sans-serif" font-size="0.7" fill="white" text-anchor="middle">RAID</text>
</svg>
